<?xml version="1.0" encoding="utf-8"?>
<!-- Generator: Adobe Illustrator 17.1.0, SVG Export Plug-In . SVG Version: 6.00 Build 0)  -->
<!DOCTYPE svg PUBLIC "-//W3C//DTD SVG 1.1//EN" "http://www.w3.org/Graphics/SVG/1.1/DTD/svg11.dtd">
<svg version="1.1" id="Layer_1" xmlns="http://www.w3.org/2000/svg" xmlns:xlink="http://www.w3.org/1999/xlink" x="0px" y="0px"
	 viewBox="3.3 138.5 1187 538.8" enable-background="new 3.3 138.5 1187 538.8" xml:space="preserve">
<g>
	<g>
		<g>
			<rect x="1032.1" y="174.7" fill="#E20613" width="158.1" height="42"/>
			<rect x="860.7" y="174.7" fill="#E20613" width="158" height="42"/>
			<rect x="689.2" y="174.7" fill="#E20613" width="158.1" height="42"/>
			
				<linearGradient id="SVGID_1_" gradientUnits="userSpaceOnUse" x1="-3368.8103" y1="4419.4883" x2="-3171.1853" y2="4419.4883" gradientTransform="matrix(0.8 0 0 -0.8 3212.3997 3731.147)">
				<stop  offset="0.5" style="stop-color:#E5007E"/>
				<stop  offset="0.5751" style="stop-color:#E40165"/>
				<stop  offset="0.6975" style="stop-color:#E30341"/>
				<stop  offset="0.8127" style="stop-color:#E30528"/>
				<stop  offset="0.9168" style="stop-color:#E20618"/>
				<stop  offset="1" style="stop-color:#E20613"/>
			</linearGradient>
			<rect x="517.7" y="174.7" fill="url(#SVGID_1_)" width="158.1" height="42"/>
			
				<linearGradient id="SVGID_2_" gradientUnits="userSpaceOnUse" x1="-3583.1572" y1="4419.4883" x2="-3385.6572" y2="4419.4883" gradientTransform="matrix(0.8 0 0 -0.8 3212.3997 3731.147)">
				<stop  offset="0.25" style="stop-color:#662482"/>
				<stop  offset="0.5" style="stop-color:#E20613"/>
				<stop  offset="1" style="stop-color:#E5007E"/>
			</linearGradient>
			<rect x="346.2" y="174.7" fill="url(#SVGID_2_)" width="158" height="42"/>
			
				<linearGradient id="SVGID_3_" gradientUnits="userSpaceOnUse" x1="-3684.3472" y1="4370.4038" x2="-3526.2473" y2="4370.4038" gradientTransform="matrix(1 0 0 -1 3858.9854 4565.9248)">
				<stop  offset="0" style="stop-color:#C7E0F6"/>
				<stop  offset="0.5" style="stop-color:#00988A"/>
				<stop  offset="1" style="stop-color:#28348A"/>
			</linearGradient>
			<rect x="174.8" y="174.7" fill="url(#SVGID_3_)" width="158.1" height="42"/>
			
				<linearGradient id="SVGID_4_" gradientUnits="userSpaceOnUse" x1="-4011.814" y1="4419.4883" x2="-3814.314" y2="4419.4883" gradientTransform="matrix(0.8 0 0 -0.8 3212.3997 3731.147)">
				<stop  offset="0" style="stop-color:#ADCB53"/>
				<stop  offset="0.1388" style="stop-color:#A8C857"/>
				<stop  offset="0.3124" style="stop-color:#98C164"/>
				<stop  offset="0.5045" style="stop-color:#7FB578"/>
				<stop  offset="0.71" style="stop-color:#5BA395"/>
				<stop  offset="0.9239" style="stop-color:#2E8EB9"/>
				<stop  offset="1" style="stop-color:#1C85C7"/>
			</linearGradient>
			<rect x="3.3" y="174.7" fill="url(#SVGID_4_)" width="158" height="42"/>
			<rect x="860.7" y="223.4" fill="#E20613" width="158" height="42.1"/>
			<rect x="689.2" y="223.4" fill="#E20613" width="158.1" height="42.1"/>
			
				<linearGradient id="SVGID_5_" gradientUnits="userSpaceOnUse" x1="-3368.8103" y1="4358.5508" x2="-3171.1853" y2="4358.5508" gradientTransform="matrix(0.8 0 0 -0.8 3212.3997 3731.147)">
				<stop  offset="0.25" style="stop-color:#E5007E"/>
				<stop  offset="0.3627" style="stop-color:#E40165"/>
				<stop  offset="0.5462" style="stop-color:#E30341"/>
				<stop  offset="0.719" style="stop-color:#E30528"/>
				<stop  offset="0.8751" style="stop-color:#E20618"/>
				<stop  offset="1" style="stop-color:#E20613"/>
			</linearGradient>
			<rect x="517.7" y="223.4" fill="url(#SVGID_5_)" width="158.1" height="42.1"/>
			
				<linearGradient id="SVGID_6_" gradientUnits="userSpaceOnUse" x1="-3583.1572" y1="4358.5508" x2="-3385.6572" y2="4358.5508" gradientTransform="matrix(0.8 0 0 -0.8 3212.3997 3731.147)">
				<stop  offset="0.15" style="stop-color:#662482"/>
				<stop  offset="0.5" style="stop-color:#E20613"/>
				<stop  offset="1" style="stop-color:#E5007E"/>
			</linearGradient>
			<rect x="346.2" y="223.4" fill="url(#SVGID_6_)" width="158" height="42.1"/>
			
				<linearGradient id="SVGID_7_" gradientUnits="userSpaceOnUse" x1="-3797.4963" y1="4358.5508" x2="-3599.8713" y2="4358.5508" gradientTransform="matrix(0.8 0 0 -0.8 3212.3997 3731.147)">
				<stop  offset="0" style="stop-color:#C7E0F6"/>
				<stop  offset="0.5" style="stop-color:#00988A"/>
				<stop  offset="1" style="stop-color:#28348A"/>
			</linearGradient>
			<rect x="174.8" y="223.4" fill="url(#SVGID_7_)" width="158.1" height="42.1"/>
			
				<linearGradient id="SVGID_8_" gradientUnits="userSpaceOnUse" x1="-4011.814" y1="4358.5508" x2="-3814.314" y2="4358.5508" gradientTransform="matrix(0.8 0 0 -0.8 3212.3997 3731.147)">
				<stop  offset="0" style="stop-color:#ADCB53"/>
				<stop  offset="0.1388" style="stop-color:#A8C857"/>
				<stop  offset="0.3124" style="stop-color:#98C164"/>
				<stop  offset="0.5045" style="stop-color:#7FB578"/>
				<stop  offset="0.71" style="stop-color:#5BA395"/>
				<stop  offset="0.9239" style="stop-color:#2E8EB9"/>
				<stop  offset="1" style="stop-color:#1C85C7"/>
			</linearGradient>
			<rect x="3.3" y="223.4" fill="url(#SVGID_8_)" width="158" height="42.1"/>
			<rect x="689.2" y="272.1" fill="#E20613" width="158.1" height="42"/>
			
				<linearGradient id="SVGID_9_" gradientUnits="userSpaceOnUse" x1="-3368.8103" y1="4297.7383" x2="-3171.1853" y2="4297.7383" gradientTransform="matrix(0.8 0 0 -0.8 3212.3997 3731.147)">
				<stop  offset="0" style="stop-color:#E5007E"/>
				<stop  offset="0.1502" style="stop-color:#E40165"/>
				<stop  offset="0.3949" style="stop-color:#E30341"/>
				<stop  offset="0.6253" style="stop-color:#E30528"/>
				<stop  offset="0.8335" style="stop-color:#E20618"/>
				<stop  offset="1" style="stop-color:#E20613"/>
			</linearGradient>
			<rect x="517.7" y="272.1" fill="url(#SVGID_9_)" width="158.1" height="42"/>
			
				<linearGradient id="SVGID_10_" gradientUnits="userSpaceOnUse" x1="-3583.1572" y1="4297.7383" x2="-3385.6572" y2="4297.7383" gradientTransform="matrix(0.8 0 0 -0.8 3212.3997 3731.147)">
				<stop  offset="0" style="stop-color:#662482"/>
				<stop  offset="0.5" style="stop-color:#E20613"/>
				<stop  offset="1" style="stop-color:#E5007E"/>
			</linearGradient>
			<rect x="346.2" y="272.1" fill="url(#SVGID_10_)" width="158" height="42"/>
			
				<linearGradient id="SVGID_11_" gradientUnits="userSpaceOnUse" x1="-3797.4963" y1="4297.7383" x2="-3599.8713" y2="4297.7383" gradientTransform="matrix(0.8 0 0 -0.8 3212.3997 3731.147)">
				<stop  offset="0" style="stop-color:#C7E0F6"/>
				<stop  offset="0.5" style="stop-color:#00988A"/>
				<stop  offset="1" style="stop-color:#283582"/>
			</linearGradient>
			<rect x="174.8" y="272.1" fill="url(#SVGID_11_)" width="158.1" height="42"/>
			
				<linearGradient id="SVGID_12_" gradientUnits="userSpaceOnUse" x1="-4011.814" y1="4297.7383" x2="-3814.314" y2="4297.7383" gradientTransform="matrix(0.8 0 0 -0.8 3212.3997 3731.147)">
				<stop  offset="0" style="stop-color:#ADCB53"/>
				<stop  offset="0.1388" style="stop-color:#A8C857"/>
				<stop  offset="0.3124" style="stop-color:#98C164"/>
				<stop  offset="0.5045" style="stop-color:#7FB578"/>
				<stop  offset="0.71" style="stop-color:#5BA395"/>
				<stop  offset="0.9239" style="stop-color:#2E8EB9"/>
				<stop  offset="1" style="stop-color:#1C85C7"/>
			</linearGradient>
			<rect x="3.3" y="272.1" fill="url(#SVGID_12_)" width="158" height="42"/>
			<rect x="517.7" y="320.9" fill="#E20613" width="158.1" height="42"/>
			
				<linearGradient id="SVGID_13_" gradientUnits="userSpaceOnUse" x1="-3583.1572" y1="4236.7383" x2="-3385.6572" y2="4236.7383" gradientTransform="matrix(0.8 0 0 -0.8 3212.3997 3731.147)">
				<stop  offset="0" style="stop-color:#BC1D1D"/>
				<stop  offset="0.25" style="stop-color:#E20613"/>
				<stop  offset="1" style="stop-color:#E5007E"/>
			</linearGradient>
			<rect x="346.2" y="320.9" fill="url(#SVGID_13_)" width="158" height="42"/>
			
				<linearGradient id="SVGID_14_" gradientUnits="userSpaceOnUse" x1="-3797.4963" y1="4236.7383" x2="-3599.8713" y2="4236.7383" gradientTransform="matrix(0.8 0 0 -0.8 3212.3997 3731.147)">
				<stop  offset="0" style="stop-color:#A1C517"/>
				<stop  offset="0.4" style="stop-color:#00A995"/>
				<stop  offset="0.62" style="stop-color:#0072BC"/>
				<stop  offset="1" style="stop-color:#E20613"/>
			</linearGradient>
			<rect x="174.8" y="320.9" fill="url(#SVGID_14_)" width="158.1" height="42"/>
			<rect x="3.3" y="320.9" fill="#ADCB53" width="158" height="42"/>
			<rect x="346.2" y="369.7" fill="#E20613" width="158" height="42"/>
			
				<linearGradient id="SVGID_15_" gradientUnits="userSpaceOnUse" x1="-3797.4963" y1="4175.7383" x2="-3599.8713" y2="4175.7383" gradientTransform="matrix(0.8 0 0 -0.8 3212.3997 3731.147)">
				<stop  offset="0" style="stop-color:#A1C517"/>
				<stop  offset="0.4" style="stop-color:#00988A"/>
				<stop  offset="0.62" style="stop-color:#0069B3"/>
				<stop  offset="1" style="stop-color:#E20613"/>
			</linearGradient>
			<rect x="174.8" y="369.7" fill="url(#SVGID_15_)" width="158.1" height="42"/>
			<rect x="3.3" y="369.7" fill="#ADCB53" width="158" height="42"/>
			
				<linearGradient id="SVGID_16_" gradientUnits="userSpaceOnUse" x1="-3797.4963" y1="4114.8008" x2="-3599.8713" y2="4114.8008" gradientTransform="matrix(0.8 0 0 -0.8 3212.3997 3731.147)">
				<stop  offset="0" style="stop-color:#A1C517"/>
				<stop  offset="0.4" style="stop-color:#00988A"/>
				<stop  offset="0.62" style="stop-color:#0069B3"/>
				<stop  offset="1" style="stop-color:#E20613"/>
			</linearGradient>
			<rect x="174.8" y="418.4" fill="url(#SVGID_16_)" width="158.1" height="42.1"/>
			<rect x="3.3" y="418.4" fill="#ADCB53" width="158" height="42.1"/>
			<rect x="3.3" y="467.2" fill="#ADCB53" width="158" height="42"/>
		</g>
		<g>
			<path d="M210.1,480.6L353,306.4c6.7-8.4,28-14.6,14.6,12.2c0,0-15.2,26.4-18.5,36.5c-3.4,10-11.3,42.3,12.4,15.6
				c0,0,178.7-195.2,219.4-221.3c0,0,7.5-22.7-44.6,10c0,0-53.8,35.4-58.8,40.4c0,0-28.6,9-1.2-17.4c0,0,27.5-19.5,43.8-32.4
				c0,0-1.4-14.9-38.1,7.9c0,0-111.5,69.5-117.2,73.9c0,0-35.2,12.9-1.7-17.4c0,0,11.2-11.8,21.3-21.8c0,0,23-20.1,3.3-16.9
				c0,0-149,86.3-197.8,123.3c0,0-102.5,79.6-141.2,167s17.4,2.8,29.2-12.3c0,0,68.4-79,46.5-28.6c0,0-49.6,132-59.7,155.5
				c0,0-26.1,81.6,16-5.9c0,0,21-18.4-8.4,43.7c0,0-13.5,24.5-16,58.9c0,0,58.6-136.1,92.2-183.3c0,0,48.2-85.1,85.2-107.5
				L210.1,480.6z"/>
			<path fill="#FFEC00" d="M206.7,477.3L349.6,303c6.7-8.4,28-14.6,14.6,12.3c0,0-15.1,26.3-18.5,36.5c-3.4,10-11.2,42.3,12.3,15.7
				c0,0,178.8-195.2,219.4-221.4c0,0,7.6-22.7-44.5,10.1c0,0-53.8,35.3-58.9,40.3c0,0-28.6,9.1-1.1-17.3c0,0,27.4-19.6,43.7-32.4
				c0,0-1.4-14.8-38.1,7.9c0,0-111.6,69.4-117.1,73.9c0,0-35.4,12.9-1.7-17.4c0,0,11.2-11.8,21.3-21.8c0,0,23-20.2,3.3-16.8
				c0,0-149,86.2-197.8,123.2c0,0-102.5,79.6-141.2,167c-38.6,87.4,17.3,2.9,29.1-12.3c0,0,68.4-79,46.5-28.6
				c0,0-49.5,132-59.7,155.6c0,0-26,81.6,16-5.9c0,0,21.1-18.5-8.5,43.8c0,0-13.3,24.3-15.9,58.7c0,0,58.6-136.1,92.2-183.2
				c0,0,48.2-85.1,85.2-107.5L206.7,477.3z"/>
		</g>
	</g>
	<g>
		<path fill="#E20613" d="M334.4,602.1h19.5c19.9,0,25.7,17,25.7,27.3c0,12.3-4.4,25.2-26.5,25.2h-18.6v-52.5H334.4z M334.4,547h12
			c23.9,0,28.6,13.4,28.6,24.5c0,16.9-11.8,22.6-24.2,22.6h-16.5V547H334.4z M311.2,662.7h52.4c28,0,39.3-16,39.3-33.8
			c0-15.9-9.7-26.9-26.4-30.4v-0.4c12.7-3.3,21.8-12.6,21.8-27.7c0-11.2-7.4-31.5-35.9-31.5h-51.3v123.8H311.2z"/>
		<path fill="#E20613" d="M427.6,629.6l8.9-31.8c1.2-4.8,1.5-8,4.2-8s2.5,3,3.8,7.8l9.3,32H427.6z M418.4,662.7l6.9-25h30.9l7.3,25
			h18.1L462,596.1c-3.1-9.9-5-18-16.4-18c-9.7,0-13.4,6-15.8,14.3l-19.3,70.3H418.4z"/>
		<path fill="#E20613" d="M488.6,655.1c5.5,0.8,11.4,1.5,16.8,1.5c8.3,0,17.9-2.4,17.9-12.7c0-17.2-36.7-16.9-36.7-40.1
			c0-18.6,16.2-23.6,28.4-23.6c7.6,0,14.1,0.8,18.7,1.3v5.9c-3.6-0.5-6.8-1.1-10.7-1.1c-8.6,0-20.4-0.3-20.4,11.5
			c0,15.7,37.9,14.9,37.9,41.6c0,16.2-13.1,23.3-28.4,23.3c-8.6,0-15.9-0.3-23.5-2.2L488.6,655.1L488.6,655.1z"/>
		<path fill="#E20613" d="M614.1,599.7c-4.7-9.2-12-15.5-22.2-15.5c-18,0-23.7,19.4-23.7,36c0,16.3,3.8,38.6,24.7,38.6
			c12.2,0,18.2-9.5,23.6-17.4l6.1,2.5c-5.9,10.9-15.4,20.8-34,20.8c-23.1,0-40.4-17.7-40.4-43.4c0-22.9,16.4-43.2,41.4-43.2
			c16.2,0,24,7.9,31.6,18L614.1,599.7z"/>
		<path fill="#E20613" d="M671.4,584.2c11.5,0,22.9,13.6,22.9,37.3c0,23.6-11.4,37.2-22.9,37.2c-11.5,0-22.9-13.7-22.9-37.2
			C648.5,597.8,659.9,584.2,671.4,584.2z M671.4,578.1c-27.1,0-42.9,18.8-42.9,43.4c0,23,20.4,43.2,42.9,43.2
			c27,0,42.9-18.7,42.9-43.2C714.3,598.4,693.8,578.1,671.4,578.1z"/>
		<path fill="#E20613" d="M807.5,545.1h10.9c24.3,0,30.5,14.3,30.5,27c0,21.3-9.8,31.2-29.9,31.2h-11.5V545.1z M784.3,662.7h23.2
			v-51.4h17.1c31.4,0,47.6-8.9,47.6-35.5c0-24.4-18.9-36.8-37.3-36.8h-50.6V662.7z"/>
		<path fill="#E20613" d="M892.7,629.6l8.9-31.8c1.1-4.8,1.5-8,4.3-8c2.6,0,2.4,3,3.8,7.8l9.3,32H892.7z M883.5,662.7l6.8-25h30.9
			l7.4,25h18.1L927,596.1c-3-9.9-4.9-18-16.4-18c-9.7,0-13.3,6-15.8,14.3l-19.3,70.3L883.5,662.7L883.5,662.7z"/>
		<path fill="#E20613" d="M961.2,662.7v-82.5h17.1v82.5H961.2z M981,549.7c0,6.2-4.6,11.3-11.3,11.3c-6.6,0-11.2-5.2-11.2-11.3
			c0-6.3,4.5-11.2,11.2-11.2C976.4,538.5,981,543.4,981,549.7z"/>
		<path fill="#E20613" d="M1002.5,662.7v-70.1c0-8.7,5.4-12.4,12.8-12.4c6.3,0,9.8,2.8,13.1,7.6c17,24.7,29.5,44.6,30.5,44.6
			c0.8,0,1.4-0.2,1.4-1.9v-50.3h8.1v76.1c0,5.4-0.3,8.4-5.4,8.4c-5.1,0-6.7-3.8-9.9-8.8l-6.7-9.9c-28.9-44.2-32.4-51.3-34.5-51.3
			c-1.1,0-1.3,0.9-1.3,2.5v65.5L1002.5,662.7L1002.5,662.7z"/>
		<path fill="#E20613" d="M1081.3,580.2h50.7v6h-16.8v76.4H1098v-76.4h-16.7V580.2z"/>
		<path fill="#E20613" d="M1138.5,655.1c5.5,0.8,11.4,1.5,16.8,1.5c8.5,0,17.9-2.4,17.9-12.7c0-17.2-36.8-16.9-36.8-40.1
			c0-18.6,16.1-23.6,28.4-23.6c7.6,0,14.2,0.8,18.8,1.3v5.9c-3.7-0.5-6.9-1.1-10.7-1.1c-8.7,0-20.5-0.3-20.5,11.5
			c0,15.7,37.9,14.9,37.9,41.6c0,16.2-13.1,23.3-28.4,23.3c-8.6,0-15.8-0.3-23.5-2.2L1138.5,655.1L1138.5,655.1z"/>
	</g>
</g>
</svg>
